<svg xmlns="http://www.w3.org/2000/svg" xmlns:xlink="http://www.w3.org/1999/xlink" width="225" zoomAndPan="magnify" viewBox="0 0 168.75 148.499996" height="198" preserveAspectRatio="xMidYMid meet" version="1.0"><defs><g/><clipPath id="8f01a64c80"><path d="M 64.796875 52.167969 L 111.164062 52.167969 L 111.164062 98.535156 L 64.796875 98.535156 Z M 64.796875 52.167969 " clip-rule="nonzero"/></clipPath><clipPath id="1911dec382"><path d="M 87.980469 52.167969 C 75.175781 52.167969 64.796875 62.546875 64.796875 75.351562 C 64.796875 88.15625 75.175781 98.535156 87.980469 98.535156 C 100.78125 98.535156 111.164062 88.15625 111.164062 75.351562 C 111.164062 62.546875 100.78125 52.167969 87.980469 52.167969 " clip-rule="nonzero"/></clipPath></defs><g clip-path="url(#8f01a64c80)"><g clip-path="url(#1911dec382)"><path stroke-linecap="butt" transform="matrix(0.299072, 0, 0, 0.299072, 64.796677, 52.169204)" fill="none" stroke-linejoin="miter" d="M 77.51912 -0.00413034 C 34.704376 -0.00413034 0.000660895 34.699584 0.000660895 77.514329 C 0.000660895 120.329074 34.704376 155.032789 77.51912 155.032789 C 120.320804 155.032789 155.03758 120.329074 155.03758 77.514329 C 155.03758 34.699584 120.320804 -0.00413034 77.51912 -0.00413034 " stroke="#ffffff" stroke-width="20.020323" stroke-opacity="1" stroke-miterlimit="4"/></g></g><path stroke-linecap="butt" transform="matrix(0.213942, -0.208834, 0.208948, 0.214058, 62.27609, 98.11632)" fill="none" stroke-linejoin="miter" d="M 0.0066033 1.999588 L 219.140384 2.00411 " stroke="#ffffff" stroke-width="4" stroke-opacity="1" stroke-miterlimit="4"/><path stroke-linecap="round" transform="matrix(0.855767, -0.835338, 0.835792, 0.856232, 111.930536, 50.483284)" fill-opacity="1" fill="#ffffff" fill-rule="nonzero" stroke-linejoin="round" d="M -2.500064 -1.497981 L -0.500062 0.00156397 L -2.500803 1.498624 Z M -2.500064 -1.497981 " stroke="#ffffff" stroke-width="1" stroke-opacity="1" stroke-miterlimit="4"/><g fill="#ffffff" fill-opacity="1"><g transform="translate(76.117518, 79.317745)"><g><path d="M 0.53125 -0.484375 L -4.734375 -9.3125 L -3.875 -10.109375 L -1.5625 -6.25 L -1.421875 -6.390625 L -0.828125 -12.9375 L 0.265625 -13.953125 L 0.34375 -13.78125 L -0.03125 -10.1875 L -0.40625 -6.578125 L 5.6875 -5.5 L 5.78125 -5.359375 L 4.875 -4.515625 C 3.476562 -4.753906 2.140625 -4.988281 0.859375 -5.21875 L -0.875 -5.5 L -1.015625 -5.359375 L 1.390625 -1.296875 Z M 0.53125 -0.484375 "/></g></g></g><g fill="#ffffff" fill-opacity="1"><g transform="translate(82.618096, 73.290999)"><g><path d="M 6.03125 -5.59375 L 5.15625 -4.78125 L 3.015625 -6.546875 L -0.109375 -3.65625 L 0.671875 -0.609375 L -0.296875 0.28125 L -3.015625 -10.90625 L -1.78125 -12.046875 Z M -1.796875 -10.375 L -0.375 -4.75 L 2.25 -7.203125 L -1.671875 -10.484375 Z M -1.796875 -10.375 "/></g></g></g><g fill="#ffffff" fill-opacity="1"><g transform="translate(89.541967, 66.871813)"><g><path d="M 1.390625 -1.296875 L 0.53125 -0.484375 L -4.734375 -9.3125 L -3.875 -10.109375 Z M 1.390625 -1.296875 "/></g></g></g><g fill="#ffffff" fill-opacity="1"><g transform="translate(85.53259, 95.452779)"><g><path d="M -2.78125 -11.40625 C -2.1875 -12 -1.578125 -12.40625 -0.953125 -12.625 C -0.335938 -12.851562 0.269531 -12.882812 0.875 -12.71875 C 1.488281 -12.5625 2.066406 -12.210938 2.609375 -11.671875 C 2.898438 -11.378906 3.191406 -11.015625 3.484375 -10.578125 C 4.148438 -9.554688 4.5625 -8.601562 4.71875 -7.71875 C 4.875 -6.832031 4.789062 -5.988281 4.46875 -5.1875 C 4.15625 -4.394531 3.601562 -3.601562 2.8125 -2.8125 L 0.515625 -0.515625 L -5.078125 -9.109375 Z M 2.578125 -9.671875 C 2.253906 -10.160156 1.953125 -10.546875 1.671875 -10.828125 C 1.023438 -11.472656 0.382812 -11.753906 -0.25 -11.671875 C -0.894531 -11.597656 -1.582031 -11.195312 -2.3125 -10.46875 L -3.6875 -9.09375 L 0.78125 -2.1875 L 2.171875 -3.578125 C 2.765625 -4.171875 3.179688 -4.773438 3.421875 -5.390625 C 3.660156 -6.003906 3.710938 -6.660156 3.578125 -7.359375 C 3.453125 -8.066406 3.117188 -8.835938 2.578125 -9.671875 Z M 2.578125 -9.671875 "/></g></g></g><g fill="#ffffff" fill-opacity="1"><g transform="translate(93.083355, 87.902014)"><g><path d="M 1.46875 -8.96875 C 1.84375 -8.40625 1.957031 -7.757812 1.8125 -7.03125 C 1.664062 -6.300781 1.191406 -5.535156 0.390625 -4.734375 C 0.00390625 -4.347656 -0.429688 -3.984375 -0.921875 -3.640625 C -0.828125 -3.523438 -0.722656 -3.410156 -0.609375 -3.296875 C -0.171875 -2.859375 0.269531 -2.632812 0.71875 -2.625 C 1.164062 -2.613281 1.601562 -2.820312 2.03125 -3.25 C 2.40625 -3.625 2.644531 -4.003906 2.75 -4.390625 C 2.863281 -4.785156 2.867188 -5.234375 2.765625 -5.734375 L 2.875 -5.84375 L 3.6875 -6 C 3.882812 -5.34375 3.894531 -4.722656 3.71875 -4.140625 C 3.539062 -3.554688 3.160156 -2.972656 2.578125 -2.390625 C 2.191406 -2.003906 1.765625 -1.753906 1.296875 -1.640625 C 0.828125 -1.523438 0.347656 -1.550781 -0.140625 -1.71875 C -0.628906 -1.882812 -1.09375 -2.1875 -1.53125 -2.625 C -1.789062 -2.882812 -2.035156 -3.191406 -2.265625 -3.546875 C -2.691406 -4.203125 -2.960938 -4.859375 -3.078125 -5.515625 C -3.191406 -6.171875 -3.148438 -6.785156 -2.953125 -7.359375 C -2.765625 -7.941406 -2.4375 -8.46875 -1.96875 -8.9375 C -1.582031 -9.320312 -1.191406 -9.582031 -0.796875 -9.71875 C -0.410156 -9.863281 -0.046875 -9.890625 0.296875 -9.796875 C 0.648438 -9.710938 0.953125 -9.546875 1.203125 -9.296875 C 1.296875 -9.203125 1.382812 -9.09375 1.46875 -8.96875 Z M -1.4375 -8.125 C -1.90625 -7.65625 -2.144531 -7.117188 -2.15625 -6.515625 C -2.175781 -5.921875 -1.945312 -5.226562 -1.46875 -4.4375 C -1.050781 -4.769531 -0.695312 -5.082031 -0.40625 -5.375 C 0.238281 -6.019531 0.628906 -6.570312 0.765625 -7.03125 C 0.910156 -7.5 0.863281 -7.914062 0.625 -8.28125 C 0.570312 -8.351562 0.515625 -8.421875 0.453125 -8.484375 C 0.222656 -8.710938 -0.0546875 -8.796875 -0.390625 -8.734375 C -0.734375 -8.679688 -1.082031 -8.476562 -1.4375 -8.125 Z M -1.4375 -8.125 "/></g></g></g><g fill="#ffffff" fill-opacity="1"><g transform="translate(98.793772, 82.191598)"><g><path d="M 2.828125 -2.828125 L 1.75 -1.75 L -4.53125 -6.1875 L -3.71875 -7 L 1.46875 -3.28125 L 1.578125 -3.390625 L -0.265625 -10.453125 L 0.625 -11.34375 Z M 2.828125 -2.828125 "/></g></g></g><g fill="#ffffff" fill-opacity="1"><g transform="translate(37.840876, 97.472318)"><g><path d="M 27.15625 -11.984375 L 27.15625 -7.265625 L 2.9375 -18.171875 L 2.9375 -21.84375 L 27.15625 -32.75 L 27.15625 -28.03125 L 9.21875 -20.3125 L 9.21875 -19.71875 Z M 27.15625 -11.984375 "/></g></g></g><g fill="#ffffff" fill-opacity="1"><g transform="translate(106.725271, 97.445479)"><g><path d="M 28.515625 -18.609375 L 3.734375 -7.4375 L 3.734375 -12.28125 L 22.125 -20.203125 L 22.125 -20.8125 L 3.734375 -28.71875 L 3.734375 -33.5625 L 28.515625 -22.375 Z M 28.515625 -18.609375 "/></g></g></g></svg>